<svg xmlns="http://www.w3.org/2000/svg" viewBox="0 0 191.49 117.27"><defs><style>.cls-1{fill:#afafaf;}.cls-2{fill:#606060;}</style></defs><title>add</title><g id="Livello_2" data-name="Livello 2"><path class="cls-1" d="M130.15,1H59.2C26.5,1,0,26.83,0,58.63H0c0,31.81,26.5,57.6,59.2,57.6h71c32.69,0,59.2-25.79,59.2-57.6h0C189.35,26.83,162.84,1,130.15,1Zm-8.93,60.22H98V84.93H91.44V61.26H68.24v-6h23.2V31.8H98V55.27h23.2Z" transform="translate(1.07)"/><path class="cls-2" d="M130.15,117.27H59.2C26,117.27-1.07,91-1.07,58.63S26,0,59.2,0h71c33.23,0,60.27,26.3,60.27,58.63S163.38,117.27,130.15,117.27ZM59.2,2.08C27.15,2.08,1.07,27.45,1.07,58.63s26.08,56.56,58.13,56.56h71c32,0,58.13-25.37,58.13-56.56S162.2,2.08,130.15,2.08ZM99.08,86h-8.7V62.3H67.17V54.23H90.38V30.75h8.7V54.23h23.21V62.3H99.08Zm-6.57-2.08H97V60.22h23.2V56.31H97V32.84H92.51V56.31H69.31v3.91h23.2Z" transform="translate(1.07)"/></g></svg>